# xmcd
#
# Track frame offsets:
#	150
#	27020
#	65122
#	70701
#	84141
#	110848
#	151232
#	194624
#	217605
#	257084
#	288285
#
# Disc length: 4360 seconds
#
# Revision: 1
# Processed by: cddbd v1.5.2PL0 Copyright (c) Steve Scherf et al.
# Submitted via: audiograbber 1.83.01
#
DISCID=9311060b
DTITLE=Grateful Dead - 78-04-14 Cassell Coliseum, Virginia Polytechnic, Blacksb
DTITLE=urg VA
DYEAR=1900
DGENRE=
TTITLE0=Promised Land
TTITLE1=Tennessee Jed
TTITLE2=Stage Banter
TTITLE3=Me and My Uncle
TTITLE4=Big River
TTITLE5=Peggy-O
TTITLE6=Looks Like Rain
TTITLE7=Dire Wolf
TTITLE8=It's All Over Now
TTITLE9=Dupree's Diamond Blues
TTITLE10=The Music Never Stopped
EXTD=
EXTT0=
EXTT1=
EXTT2=
EXTT3=
EXTT4=
EXTT5=
EXTT6=
EXTT7=
EXTT8=
EXTT9=
EXTT10=
PLAYORDER=
